<svg width="20" height="20" viewBox="0 0 20 20" fill="none" xmlns="http://www.w3.org/2000/svg">
    <path d="M9.99832 0C4.47841 0 0 4.47841 0 9.99832C0 15.5182 4.47841 19.9966 9.99832 19.9966C15.5182 19.9966 20 15.5216 20 9.99832C19.9933 4.47841 15.5182 0.0067193 9.99832 0ZM9.99832 18.5721C5.26457 18.5721 1.42785 14.7354 1.42785 10.0017C1.42785 5.26793 5.26457 1.42785 9.99832 1.42785C14.7321 1.42785 18.5688 5.26457 18.5688 9.99832C18.5654 14.7321 14.7321 18.5654 9.99832 18.5721Z" fill="white"/>
    <path d="M11.427 5C11.0339 5 10.7114 5.31917 10.7114 5.71561V10.7148H5.71561C5.32253 10.7148 5 11.0339 5 11.4304C5 11.8235 5.31917 12.146 5.71561 12.146H11.4304C11.8235 12.146 12.146 11.8268 12.146 11.4304V5.71561C12.1426 5.31917 11.8235 5 11.427 5Z" fill="white"/>
</svg>
