<svg width="35" height="35" viewBox="0 0 35 35" fill="none" xmlns="http://www.w3.org/2000/svg">
    <path d="M8.75 6.58547V3.28125C8.75 1.47219 7.27781 0 5.46875 0C3.65969 0 2.1875 1.47219 2.1875 3.28125V6.58547C0.86625 7.58625 0 9.15359 0 10.9375C0 12.7214 0.86625 14.2888 2.1875 15.2873V31.7188C2.1875 33.5278 3.65969 35 5.46875 35C7.27781 35 8.75 33.5278 8.75 31.7188V15.2873C10.0713 14.2898 10.9375 12.7214 10.9375 10.9375C10.9375 9.15359 10.0713 7.58625 8.75 6.58547ZM4.375 3.28125C4.375 2.67641 4.86391 2.1875 5.46875 2.1875C6.07359 2.1875 6.5625 2.67641 6.5625 3.28125V5.57812C6.20922 5.50703 5.84391 5.46875 5.46875 5.46875C5.09359 5.46875 4.72828 5.50703 4.375 5.57812V3.28125ZM6.5625 31.7188C6.5625 32.3236 6.07359 32.8125 5.46875 32.8125C4.86391 32.8125 4.375 32.3236 4.375 31.7188V16.2947C4.72828 16.368 5.09359 16.4062 5.46875 16.4062C5.84391 16.4062 6.20922 16.368 6.5625 16.2947V31.7188ZM8.60234 11.8563C8.58484 11.9142 8.56953 11.9711 8.54875 12.0291C8.44484 12.3178 8.31141 12.5913 8.13531 12.8341C8.13094 12.8406 8.12437 12.845 8.12 12.8516C7.92969 13.1119 7.70328 13.3427 7.44625 13.5373C7.44187 13.5417 7.43859 13.5439 7.43531 13.5461C7.17172 13.7452 6.8775 13.9048 6.56141 14.0164C6.21906 14.14 5.85484 14.2188 5.46875 14.2188C5.08266 14.2188 4.71844 14.14 4.375 14.0153C4.05891 13.9037 3.76469 13.7441 3.50109 13.545C3.49781 13.5428 3.49453 13.5406 3.49016 13.5362C3.23313 13.3416 3.00672 13.1108 2.81641 12.8505C2.81203 12.8439 2.80547 12.8395 2.80109 12.833C2.625 12.5891 2.49156 12.3156 2.38766 12.028C2.36687 11.97 2.35156 11.9131 2.33406 11.8552C2.24766 11.5631 2.1875 11.258 2.1875 10.9375C2.1875 10.6148 2.24766 10.3097 2.33516 10.0166C2.35266 9.95859 2.36797 9.90172 2.38875 9.84594C2.49156 9.55719 2.625 9.28375 2.80219 9.03875C2.80656 9.03219 2.81312 9.02781 2.8175 9.02125C3.00781 8.76313 3.23422 8.53016 3.49125 8.33547C3.49562 8.33328 3.49891 8.32891 3.50219 8.32672C3.76469 8.13094 4.05891 7.97016 4.375 7.8575C4.71844 7.735 5.08266 7.65625 5.46875 7.65625C5.85484 7.65625 6.21906 7.735 6.5625 7.8575C6.87859 7.97125 7.17281 8.13094 7.43641 8.32781C7.43969 8.33 7.44297 8.33437 7.44734 8.33656C7.70438 8.53125 7.93078 8.76422 8.12109 9.02234C8.12547 9.02891 8.13203 9.03328 8.13641 9.03984C8.3125 9.28375 8.44594 9.55719 8.54875 9.84594C8.56953 9.90172 8.58594 9.95859 8.60234 10.0166C8.68984 10.3097 8.75 10.6148 8.75 10.9375C8.75 11.258 8.68984 11.5631 8.60234 11.8563Z" fill="white"/>
    <path d="M32.8125 6.58547V3.28125C32.8125 1.47219 31.3403 0 29.5312 0C27.7222 0 26.25 1.47219 26.25 3.28125V6.58547C24.9277 7.58625 24.0625 9.15359 24.0625 10.9375C24.0625 12.7214 24.9277 14.2888 26.25 15.2873V31.7188C26.25 33.5278 27.7222 35 29.5312 35C31.3403 35 32.8125 33.5278 32.8125 31.7188V15.2873C34.1327 14.2898 35 12.7214 35 10.9375C35 9.15359 34.1327 7.58625 32.8125 6.58547ZM28.4375 3.28125C28.4375 2.67641 28.9264 2.1875 29.5312 2.1875C30.1361 2.1875 30.625 2.67641 30.625 3.28125V5.57812C30.2706 5.50703 29.9053 5.46875 29.5312 5.46875C29.155 5.46875 28.7897 5.50703 28.4375 5.57812V3.28125ZM30.625 31.7188C30.625 32.3236 30.1361 32.8125 29.5312 32.8125C28.9264 32.8125 28.4375 32.3236 28.4375 31.7188V16.2947C28.7897 16.368 29.155 16.4062 29.5312 16.4062C29.9053 16.4062 30.2706 16.368 30.625 16.2947V31.7188ZM32.6648 11.8563C32.6473 11.9142 32.6309 11.9711 32.6112 12.0291C32.5062 12.3178 32.3739 12.5913 32.1967 12.8341C32.1923 12.8406 32.1858 12.845 32.1814 12.8516C31.9911 13.1119 31.7647 13.3427 31.5088 13.5373C31.5044 13.5417 31.5 13.5439 31.4978 13.5461C31.2331 13.7452 30.94 13.9048 30.6239 14.0164C30.2816 14.14 29.9162 14.2188 29.5312 14.2188C29.1441 14.2188 28.7809 14.14 28.4375 14.0153C28.1214 13.9037 27.8261 13.7441 27.5636 13.545C27.5592 13.5428 27.557 13.5406 27.5527 13.5362C27.2945 13.3416 27.0681 13.1108 26.8778 12.8505C26.8734 12.8439 26.8669 12.8395 26.8625 12.833C26.6875 12.5891 26.553 12.3156 26.4502 12.028C26.4283 11.97 26.4141 11.9131 26.3966 11.8552C26.3102 11.5631 26.25 11.258 26.25 10.9375C26.25 10.6148 26.3102 10.3097 26.3977 10.0166C26.4152 9.95859 26.4294 9.90172 26.4513 9.84594C26.5541 9.55719 26.6886 9.28375 26.8636 9.03875C26.868 9.03219 26.8745 9.02781 26.8789 9.02125C27.0692 8.76313 27.2956 8.53016 27.5538 8.33547C27.5581 8.33328 27.5603 8.32891 27.5647 8.32672C27.8272 8.12984 28.1225 7.97016 28.4386 7.85641C28.7809 7.735 29.1441 7.65625 29.5312 7.65625C29.9162 7.65625 30.2816 7.735 30.625 7.8575C30.9411 7.97125 31.2342 8.13094 31.4989 8.32781C31.5011 8.33 31.5055 8.33437 31.5098 8.33656C31.7658 8.53125 31.9922 8.76422 32.1825 9.02234C32.1869 9.02891 32.1934 9.03328 32.1978 9.03984C32.375 9.28594 32.5073 9.55937 32.6123 9.84703C32.632 9.90281 32.6484 9.96078 32.6659 10.0177C32.7523 10.3097 32.8125 10.6148 32.8125 10.9375C32.8125 11.258 32.7523 11.5631 32.6648 11.8563Z" fill="white"/>
    <path d="M20.7812 19.7105V3.28125C20.7812 1.47219 19.3091 0 17.5 0C15.6909 0 14.2188 1.47219 14.2188 3.28125V19.7105C12.8975 20.7102 12.0312 22.2786 12.0312 24.0625C12.0312 25.8464 12.8975 27.4137 14.2188 28.4123V31.7188C14.2188 33.5278 15.6909 35 17.5 35C19.3091 35 20.7812 33.5278 20.7812 31.7188V28.4123C22.1014 27.4148 22.9688 25.8464 22.9688 24.0625C22.9688 22.2786 22.1014 20.7113 20.7812 19.7105ZM16.4062 3.28125C16.4062 2.67641 16.8952 2.1875 17.5 2.1875C18.1048 2.1875 18.5938 2.67641 18.5938 3.28125V18.7031C18.2394 18.6331 17.8741 18.5938 17.5 18.5938C17.1248 18.5938 16.7595 18.632 16.4062 18.7031V3.28125ZM18.5938 31.7188C18.5938 32.3236 18.1048 32.8125 17.5 32.8125C16.8952 32.8125 16.4062 32.3236 16.4062 31.7188V29.4197C16.7595 29.493 17.1248 29.5312 17.5 29.5312C17.8741 29.5312 18.2394 29.493 18.5938 29.4197V31.7188ZM20.6336 24.9813C20.6161 25.0392 20.5997 25.0961 20.58 25.1541C20.475 25.4428 20.3427 25.7163 20.1655 25.9591C20.1611 25.9656 20.1545 25.97 20.1502 25.9766C19.9598 26.2369 19.7334 26.4677 19.4775 26.6623C19.4731 26.6667 19.4688 26.6689 19.4666 26.6711C19.2019 26.8702 18.9088 27.0298 18.5927 27.1414C18.2503 27.265 17.885 27.3438 17.5 27.3438C17.1139 27.3438 16.7497 27.265 16.4062 27.1403C16.0902 27.0287 15.7959 26.8691 15.5323 26.67C15.5291 26.6678 15.5258 26.6656 15.5214 26.6612C15.2644 26.4666 15.038 26.2358 14.8477 25.9755C14.8433 25.9689 14.8367 25.9645 14.8323 25.958C14.6562 25.7141 14.5228 25.4406 14.4189 25.153C14.3981 25.095 14.3828 25.0381 14.3653 24.9802C14.2789 24.6881 14.2188 24.383 14.2188 24.0625C14.2188 23.7398 14.2789 23.4347 14.3664 23.1416C14.3839 23.0836 14.3992 23.0267 14.42 22.9709C14.5239 22.6822 14.6573 22.4088 14.8334 22.1637C14.8378 22.1572 14.8444 22.1528 14.8488 22.1462C15.0391 21.8881 15.2655 21.6552 15.5225 21.4605C15.5269 21.4583 15.5302 21.4539 15.5334 21.4517C15.797 21.2548 16.0913 21.0952 16.4073 20.9814C16.7497 20.86 17.1139 20.7812 17.5 20.7812C17.885 20.7812 18.2503 20.86 18.5938 20.9825C18.9098 21.0963 19.203 21.2559 19.4677 21.4528C19.4698 21.455 19.4742 21.4594 19.4786 21.4616C19.7345 21.6562 19.9609 21.8892 20.1512 22.1473C20.1556 22.1539 20.1622 22.1583 20.1666 22.1648C20.3438 22.4109 20.4761 22.6844 20.5811 22.972C20.6008 23.0278 20.6172 23.0858 20.6347 23.1427C20.7211 23.4347 20.7812 23.7398 20.7812 24.0625C20.7812 24.383 20.7211 24.6881 20.6336 24.9813Z" fill="white"/>
</svg>
