<svg width="33" height="33" viewBox="0 0 33 33" fill="none" xmlns="http://www.w3.org/2000/svg">
<path d="M13.9306 0H1.21955C0.548799 0 0 0.548799 0 1.21955V13.9306C0 14.6014 0.548799 15.1502 1.21955 15.1502H13.9306C14.6014 15.1502 15.1502 14.6014 15.1502 13.9306V1.21955C15.1557 0.548799 14.6069 0 13.9306 0ZM12.7111 12.7111H2.44465V2.44465H12.7111V12.7111Z" fill="white"/>
<path d="M31.7749 0H19.0638C18.393 0 17.8442 0.548799 17.8442 1.21955V13.9306C17.8442 14.6014 18.393 15.1502 19.0638 15.1502H31.7749C32.4456 15.1502 32.9944 14.6014 32.9944 13.9306V1.21955C33 0.548799 32.4512 0 31.7749 0ZM30.5553 12.7111H20.2889V2.44465H30.5553V12.7111Z" fill="white"/>
<path d="M13.9306 17.8442H1.21955C0.548799 17.8442 0 18.393 0 19.0638V31.7749C0 32.4456 0.548799 32.9944 1.21955 32.9944H13.9306C14.6014 32.9944 15.1502 32.4456 15.1502 31.7749V19.0638C15.1557 18.393 14.6069 17.8442 13.9306 17.8442ZM12.7111 30.5553H2.44465V20.2889H12.7111V30.5553Z" fill="white"/>
<path d="M31.7749 17.8442H19.0638C18.393 17.8442 17.8442 18.393 17.8442 19.0638V31.7749C17.8442 32.4456 18.393 32.9944 19.0638 32.9944H31.7749C32.4456 32.9944 32.9944 32.4456 32.9944 31.7749V19.0638C33 18.393 32.4512 17.8442 31.7749 17.8442ZM30.5553 30.5553H20.2889V20.2889H30.5553V30.5553Z" fill="white"/>
</svg>
