<svg width="35" height="35" viewBox="0 0 35 35" fill="none" xmlns="http://www.w3.org/2000/svg">
<path d="M31.249 35H3.75105C1.68151 35 0 33.3185 0 31.249V3.75105C0 1.6815 1.68151 0 3.75105 0H31.249C33.3185 0 35 1.6815 35 3.75105V31.249C35 33.3185 33.3185 35 31.249 35ZM32.5013 3.75105C32.5013 3.06316 31.9427 2.49874 31.249 2.49874H3.75105C3.06316 2.49874 2.49874 3.05728 2.49874 3.75105V31.249C2.49874 31.9368 3.05728 32.5013 3.75105 32.5013H31.249C31.9368 32.5013 32.5013 31.9427 32.5013 31.249V3.75105Z" fill="white"/>
<path d="M11.2473 27.4979H7.49621C6.80832 27.4979 6.2439 26.9394 6.2439 26.2456C6.2439 25.5518 6.80245 24.9933 7.49621 24.9933H11.2473C11.9351 24.9933 12.4996 25.5518 12.4996 26.2456C12.4996 26.9394 11.941 27.4979 11.2473 27.4979Z" fill="white"/>
<path d="M27.4979 27.4979H16.2506C15.5627 27.4979 14.9983 26.9394 14.9983 26.2456C14.9983 25.5518 15.5569 24.9933 16.2506 24.9933H27.4979C28.1858 24.9933 28.7502 25.5518 28.7502 26.2456C28.7502 26.9394 28.1917 27.4979 27.4979 27.4979Z" fill="white"/>
<path d="M11.2473 18.7494H7.49621C6.80832 18.7494 6.2439 18.1908 6.2439 17.4971C6.2439 16.8092 6.80245 16.2448 7.49621 16.2448H11.2473C11.9351 16.2448 12.4996 16.8033 12.4996 17.4971C12.4996 18.1908 11.941 18.7494 11.2473 18.7494Z" fill="white"/>
<path d="M27.4979 18.7494H16.2506C15.5627 18.7494 14.9983 18.1908 14.9983 17.4971C14.9983 16.8092 15.5569 16.2448 16.2506 16.2448H27.4979C28.1858 16.2448 28.7502 16.8033 28.7502 17.4971C28.7502 18.1908 28.1917 18.7494 27.4979 18.7494Z" fill="white"/>
<path d="M11.2473 10.0008H7.49621C6.80832 10.0008 6.2439 9.4423 6.2439 8.74853C6.2439 8.05476 6.80245 7.49622 7.49621 7.49622H11.2473C11.9351 7.49622 12.4996 8.05476 12.4996 8.74853C12.4996 9.4423 11.941 10.0008 11.2473 10.0008Z" fill="white"/>
<path d="M27.4979 10.0008H16.2506C15.5627 10.0008 14.9983 9.4423 14.9983 8.74853C14.9983 8.05476 15.5569 7.49622 16.2506 7.49622H27.4979C28.1858 7.49622 28.7502 8.05476 28.7502 8.74853C28.7502 9.4423 28.1917 10.0008 27.4979 10.0008Z" fill="white"/>
</svg>
