<svg width="32" height="32" viewBox="0 0 32 32" fill="none" xmlns="http://www.w3.org/2000/svg">
<path d="M17.0062 32H15C13.375 32 12.0562 30.6812 12.0562 29.0562V28.375C11.3687 28.1562 10.6937 27.875 10.05 27.5438L9.56875 28.025C8.4 29.1938 6.5375 29.1562 5.4 28.025L3.98125 26.6063C2.85 25.475 2.8125 23.6063 3.98125 22.4375L4.4625 21.9562C4.13125 21.3125 3.85 20.6438 3.63125 19.95H2.94375C1.31875 19.95 0 18.6313 0 17.0063V15C0 13.375 1.31875 12.0562 2.94375 12.0562H3.625C3.84375 11.3687 4.125 10.6938 4.45625 10.05L3.975 9.56875C2.80625 8.40625 2.8375 6.5375 3.975 5.4L5.39375 3.98125C6.53125 2.84375 8.39375 2.81875 9.5625 3.98125L10.0437 4.4625C10.6875 4.13125 11.3562 3.85 12.05 3.63125V2.94375C12.05 1.31875 13.3687 0 14.9937 0H17C18.625 0 19.9437 1.31875 19.9437 2.94375V3.625C20.6312 3.84375 21.3062 4.125 21.95 4.45625L22.4312 3.975C23.6 2.80625 25.4625 2.84375 26.6 3.975L28.0187 5.39375C29.15 6.525 29.1875 8.39375 28.0187 9.5625L27.5375 10.0437C27.8687 10.6875 28.15 11.3562 28.3687 12.05H29.05C30.675 12.05 31.9937 13.3687 31.9937 14.9937V17C31.9937 18.625 30.675 19.9438 29.05 19.9438H28.375C28.1562 20.6313 27.875 21.3063 27.5437 21.95L28.025 22.4312C29.1937 23.5938 29.1625 25.4625 28.025 26.6L26.6062 28.0187C25.4688 29.1562 23.6062 29.1812 22.4375 28.0187L21.9562 27.5375C21.3125 27.8687 20.6437 28.15 19.95 28.3687V29.05C19.95 30.6812 18.6312 32 17.0062 32ZM10.3562 25.575C11.25 26.1063 12.2125 26.5063 13.2187 26.7625C13.6312 26.8688 13.925 27.2438 13.925 27.6688V29.05C13.925 29.6375 14.4062 30.1187 14.9937 30.1187H17C17.5875 30.1187 18.0687 29.6375 18.0687 29.05V27.6688C18.0687 27.2438 18.3562 26.8688 18.775 26.7625C19.7812 26.5 20.7437 26.1 21.6375 25.575C22.0063 25.3563 22.475 25.4188 22.775 25.7188L23.7562 26.7C24.1812 27.125 24.8562 27.1125 25.2687 26.7L26.6875 25.2812C27.1 24.8687 27.1125 24.1937 26.6875 23.7687L25.7062 22.7875C25.4062 22.4875 25.3437 22.0187 25.5625 21.65C26.0937 20.7563 26.4937 19.7938 26.75 18.7875C26.8562 18.375 27.2312 18.0812 27.6562 18.0812H29.0375C29.625 18.0812 30.1062 17.6 30.1062 17.0125V15.0063C30.1062 14.4188 29.625 13.9375 29.0375 13.9375H27.6562C27.2312 13.9375 26.8562 13.65 26.75 13.2312C26.4875 12.225 26.0875 11.2625 25.5625 10.3687C25.3437 10 25.4062 9.53125 25.7062 9.23125L26.6875 8.25C27.1125 7.825 27.1 7.15 26.6875 6.7375L25.2687 5.31875C24.8562 4.90625 24.175 4.89375 23.7562 5.31875L22.775 6.3C22.475 6.6 22 6.6625 21.6375 6.44375C20.7437 5.9125 19.7812 5.5125 18.775 5.25625C18.3625 5.15 18.0687 4.775 18.0687 4.35V2.94375C18.0687 2.35625 17.5875 1.875 17 1.875H14.9937C14.4062 1.875 13.925 2.35625 13.925 2.94375V4.325C13.925 4.75 13.6375 5.125 13.2187 5.23125C12.2125 5.49375 11.25 5.89375 10.3562 6.41875C9.9875 6.6375 9.51875 6.575 9.21875 6.275L8.2375 5.29375C7.8125 4.86875 7.1375 4.88125 6.725 5.29375L5.30625 6.7125C4.89375 7.125 4.88125 7.8 5.30625 8.225L6.2875 9.20625C6.5875 9.50625 6.65 9.975 6.43125 10.3438C5.9 11.2375 5.5 12.2 5.24375 13.2063C5.1375 13.6188 4.7625 13.9125 4.3375 13.9125H2.94375C2.35625 13.9125 1.875 14.3938 1.875 14.9812V16.9875C1.875 17.575 2.35625 18.0562 2.94375 18.0562H4.325C4.75 18.0562 5.125 18.3438 5.23125 18.7625C5.49375 19.7688 5.89375 20.7313 6.41875 21.625C6.6375 21.9937 6.575 22.4625 6.275 22.7625L5.29375 23.7437C4.86875 24.1687 4.88125 24.8438 5.29375 25.2563L6.7125 26.675C7.125 27.0875 7.80625 27.1 8.225 26.675L9.20625 25.6938C9.4375 25.4937 9.90625 25.3063 10.3562 25.575Z" fill="white"/>
<path d="M16 22.9625C12.1625 22.9625 9.03748 19.8375 9.03748 16C9.03748 12.1625 12.1625 9.03751 16 9.03751C19.8375 9.03751 22.9625 12.1625 22.9625 16C22.9625 19.8375 19.8375 22.9625 16 22.9625ZM16 10.9125C13.1937 10.9125 10.9125 13.1938 10.9125 16C10.9125 18.8063 13.1937 21.0875 16 21.0875C18.8062 21.0875 21.0875 18.8063 21.0875 16C21.0875 13.1938 18.8062 10.9125 16 10.9125Z" fill="white"/>
</svg>
