<svg width="38" height="31" viewBox="0 0 38 31" fill="none" xmlns="http://www.w3.org/2000/svg">
<path d="M35.2857 28.1818V7.04545C35.2857 6.26723 34.6781 5.63636 33.9286 5.63636H28.5C27.7505 5.63636 27.1429 6.26723 27.1429 7.04545V28.1818H24.4286V1.40909C24.4286 0.630872 23.821 0 23.0714 0H17.6429C16.8933 0 16.2857 0.630872 16.2857 1.40909V28.1818H13.5714V14.0909C13.5714 13.3127 12.9638 12.6818 12.2143 12.6818H6.78571C6.03618 12.6818 5.42857 13.3127 5.42857 14.0909V28.1818H2.71429V0H0V29.5909C0 30.3691 0.607614 31 1.35714 31H38V28.1818H35.2857ZM29.8571 8.45455H32.5714V28.1818H29.8571V8.45455ZM19 2.81818H21.7143V28.1818H19V2.81818ZM8.14286 15.5H10.8571V28.1818H8.14286V15.5Z" fill="white"/>
</svg>
