<svg width="37" height="37" viewBox="0 0 37 37" fill="none" xmlns="http://www.w3.org/2000/svg">
    <path d="M35.1396 14.6594L31.5968 13.9494C31.4188 13.4372 31.2083 12.94 30.9759 12.459L32.9832 9.44802C33.5948 8.53108 33.4734 7.30889 32.6941 6.53071L30.4695 4.30601C30.022 3.85853 29.4312 3.62843 28.8323 3.62843C28.3894 3.62843 27.9419 3.75562 27.5523 4.01694L24.5414 6.0231C24.0581 5.78953 23.5609 5.58139 23.0487 5.40333L22.3387 1.85931C22.1237 0.777025 21.1733 0 20.0713 0H16.9263C15.8244 0 14.8752 0.778181 14.6589 1.85931L13.949 5.40333C13.4368 5.58139 12.9396 5.79068 12.4586 6.0231L9.44887 4.01694C9.05691 3.75562 8.61059 3.62843 8.16659 3.62843C7.56881 3.62843 6.97797 3.85853 6.5305 4.30601L4.30703 6.5307C3.52772 7.31004 3.40631 8.53108 4.01797 9.44802L6.02406 12.459C5.7905 12.9412 5.58238 13.4384 5.40431 13.9506L1.85925 14.6594C0.778156 14.8756 0 15.8249 0 16.9269V20.072C0 21.1739 0.778156 22.1244 1.85925 22.3394L5.40316 23.0506C5.58122 23.5628 5.7905 24.06 6.02291 24.541L4.01797 27.552C3.40631 28.4689 3.52772 29.6911 4.30703 30.4693L6.53166 32.694C6.97913 33.1415 7.56997 33.3716 8.16775 33.3716C8.61175 33.3716 9.05922 33.2432 9.44887 32.9831L12.4598 30.9758C12.9419 31.2105 13.4391 31.4186 13.9513 31.5967L14.6601 35.1395C14.8763 36.2218 15.8256 37 16.9275 37H20.0725C21.1744 37 22.1248 36.2207 22.3399 35.1395L23.051 31.5967C23.5632 31.4186 24.0604 31.2082 24.5414 30.9758L27.5523 32.9831C27.9431 33.2432 28.3906 33.3716 28.8322 33.3716C29.4312 33.3716 30.022 33.1415 30.4695 32.694L32.6941 30.4693C33.4734 29.69 33.5948 28.4689 32.9832 27.552L30.9759 24.541C31.2107 24.0577 31.4188 23.5605 31.5968 23.0483L35.1396 22.3394C36.2207 22.1255 37 21.1739 37 20.072V16.9269C37 15.8249 36.2207 14.8756 35.1396 14.6594ZM31.1424 20.7819C30.3388 20.9427 29.6809 21.5162 29.4127 22.2909C29.2635 22.7176 29.0901 23.1315 28.8958 23.5327C28.5362 24.2716 28.5975 25.1434 29.0519 25.8245L31.0592 28.8355L28.8346 31.0602L25.8237 29.0528C25.4375 28.795 24.99 28.6643 24.5414 28.6643C24.198 28.6643 23.8523 28.7406 23.5343 28.8944C23.1319 29.0887 22.7192 29.2644 22.2902 29.4136C21.5178 29.6819 20.9443 30.3398 20.7836 31.1434L20.0725 34.6886H16.9275L16.2187 31.1434C16.058 30.3398 15.4845 29.6819 14.711 29.4136C14.2843 29.2644 13.8692 29.091 13.468 28.8967C13.1489 28.7406 12.8043 28.6643 12.4598 28.6643C12.01 28.6643 11.5637 28.795 11.1775 29.0528L8.16659 31.0602L5.94197 28.8355L7.94806 25.8245C8.40247 25.1423 8.46144 24.2704 8.10647 23.535C7.91222 23.1327 7.73763 22.7199 7.58847 22.2909C7.32022 21.5185 6.66116 20.945 5.85872 20.7842L2.31481 20.0731L2.3125 16.9269L5.85756 16.2181C6.66 16.0573 7.31906 15.4838 7.58731 14.7103C7.73647 14.2836 7.90875 13.8685 8.10416 13.4673C8.46259 12.7296 8.40247 11.8577 7.94691 11.1767L5.94197 8.16569L8.16544 5.941L11.1763 7.94716C11.5625 8.20501 12.01 8.33567 12.4586 8.33567C12.802 8.33567 13.1466 8.25935 13.4657 8.10557C13.8669 7.91131 14.2808 7.73671 14.7087 7.58755C15.4822 7.31929 16.0557 6.66021 16.2164 5.85775L16.9263 2.31373L20.0713 2.31257L20.7801 5.85775C20.9408 6.66021 21.5143 7.31929 22.289 7.58755C22.7157 7.73671 23.1296 7.909 23.5308 8.10441C23.8511 8.25935 24.1945 8.33567 24.5402 8.33567C24.99 8.33567 25.4363 8.20501 25.8225 7.94716L28.8334 5.941L31.058 8.16569L29.0508 11.1767C28.5964 11.8589 28.5386 12.7296 28.8924 13.4661C29.0866 13.8673 29.2624 14.2813 29.4115 14.7091C29.6798 15.4827 30.3377 16.0562 31.1413 16.2169L34.684 16.9269L34.6875 20.072L31.1424 20.7819Z" fill="white"/>
    <path d="M18.5 10.4054C14.0311 10.4054 10.4062 14.0304 10.4062 18.4994C10.4062 22.9696 14.0311 26.5934 18.5 26.5934C22.9689 26.5934 26.5938 22.9684 26.5938 18.4994C26.5938 14.0304 22.9689 10.4054 18.5 10.4054ZM18.5 25.5828C14.5896 25.5828 11.418 22.41 11.418 18.5006C11.418 14.59 14.5896 11.4183 18.5 11.4183C22.4093 11.4183 25.582 14.59 25.582 18.5006C25.582 22.41 22.4093 25.5828 18.5 25.5828Z" fill="white"/>
    <path d="M18.5 13.8743C15.9447 13.8743 13.875 15.944 13.875 18.4994C13.875 21.0536 15.9447 23.1246 18.5 23.1246C21.0542 23.1246 23.125 21.0536 23.125 18.4994C23.125 15.9452 21.0542 13.8743 18.5 13.8743ZM18.5 21.9694C16.5852 21.9694 15.0312 20.4154 15.0312 18.5006C15.0312 16.5858 16.5852 15.0317 18.5 15.0317C20.4148 15.0317 21.9688 16.5858 21.9688 18.5006C21.9688 20.4154 20.4148 21.9694 18.5 21.9694Z" fill="white"/>
</svg>
